<svg width="410" height="446" viewBox="0 0 410 446" fill="none" xmlns="http://www.w3.org/2000/svg">
<path d="M405.688 320.538H390.659L386 305.969L381.341 320.538H366.312L378.453 329.528L373.859 344.031L386 335.041L398.141 344.031L393.481 329.462L405.688 320.538Z" fill="#F1DE30"/>
<path d="M224.688 420.538H209.659L205 405.969L200.341 420.538H185.312L197.453 429.528L192.859 444.031L205 435.041L217.141 444.031L212.481 429.462L224.688 420.538Z" fill="#F1DE30"/>
<path d="M41.6875 322.538H26.6594L22 307.969L17.3406 322.538H2.3125L14.4531 331.528L9.85938 346.031L22 337.041L34.1406 346.031L29.4813 331.462L41.6875 322.538Z" fill="#F1DE30"/>
<path d="M6.06818 261.127V191.309H20.8295V220.116H50.7955V191.309H65.5227V261.127H50.7955V232.286H20.8295V261.127H6.06818ZM79.6473 261.127H63.8291L87.9314 191.309H106.954L131.022 261.127H115.204L97.7155 207.263H97.17L79.6473 261.127ZM78.6586 233.684H116.022V245.207H78.6586V233.684ZM129.346 261.127V191.309H144.107V248.957H174.039V261.127H129.346ZM187.55 261.127H171.732L195.834 191.309H214.857L238.925 261.127H223.107L205.618 207.263H205.072L187.55 261.127ZM186.561 233.684H223.925V245.207H186.561V233.684ZM237.248 261.127V191.309H252.01V248.957H281.941V261.127H237.248ZM295.452 261.127H279.634L303.736 191.309H322.759L346.827 261.127H331.009L313.52 207.263H312.975L295.452 261.127ZM294.464 233.684H331.827V245.207H294.464V233.684ZM403.548 191.309V261.127H390.798L360.423 217.184H359.912V261.127H345.151V191.309H358.105L388.242 235.218H388.855V191.309H403.548Z" fill="white"/>
<path d="M65.5455 373.127V358.945L98.6818 328.263C101.5 325.536 103.864 323.082 105.773 320.9C107.712 318.718 109.182 316.582 110.182 314.491C111.182 312.37 111.682 310.082 111.682 307.627C111.682 304.9 111.061 302.551 109.818 300.582C108.576 298.582 106.879 297.051 104.727 295.991C102.576 294.9 100.136 294.354 97.4091 294.354C94.5606 294.354 92.0758 294.93 89.9545 296.082C87.8333 297.233 86.197 298.885 85.0455 301.036C83.8939 303.188 83.3182 305.748 83.3182 308.718H64.6364C64.6364 302.627 66.0152 297.339 68.7727 292.854C71.5303 288.37 75.3939 284.9 80.3636 282.445C85.3333 279.991 91.0606 278.763 97.5455 278.763C104.212 278.763 110.015 279.945 114.955 282.309C119.924 284.642 123.788 287.885 126.545 292.036C129.303 296.188 130.682 300.945 130.682 306.309C130.682 309.824 129.985 313.294 128.591 316.718C127.227 320.142 124.788 323.945 121.273 328.127C117.758 332.279 112.803 337.263 106.409 343.082L92.8182 356.4V357.036H131.909V373.127H65.5455ZM169.87 375.173C162.052 375.142 155.325 373.218 149.689 369.4C144.083 365.582 139.764 360.051 136.734 352.809C133.734 345.566 132.249 336.854 132.28 326.673C132.28 316.521 133.78 307.87 136.78 300.718C139.81 293.566 144.128 288.127 149.734 284.4C155.37 280.642 162.083 278.763 169.87 278.763C177.658 278.763 184.355 280.642 189.961 284.4C195.598 288.157 199.931 293.612 202.961 300.763C205.992 307.885 207.492 316.521 207.461 326.673C207.461 336.885 205.946 345.612 202.916 352.854C199.916 360.097 195.613 365.627 190.007 369.445C184.401 373.263 177.689 375.173 169.87 375.173ZM169.87 358.854C175.204 358.854 179.461 356.173 182.643 350.809C185.825 345.445 187.401 337.4 187.37 326.673C187.37 319.612 186.643 313.733 185.189 309.036C183.764 304.339 181.734 300.809 179.098 298.445C176.492 296.082 173.416 294.9 169.87 294.9C164.567 294.9 160.325 297.551 157.143 302.854C153.961 308.157 152.355 316.097 152.325 326.673C152.325 333.824 153.037 339.794 154.461 344.582C155.916 349.339 157.961 352.915 160.598 355.309C163.234 357.673 166.325 358.854 169.87 358.854ZM208.695 373.127V358.945L241.832 328.263C244.65 325.536 247.014 323.082 248.923 320.9C250.862 318.718 252.332 316.582 253.332 314.491C254.332 312.37 254.832 310.082 254.832 307.627C254.832 304.9 254.211 302.551 252.968 300.582C251.726 298.582 250.029 297.051 247.877 295.991C245.726 294.9 243.286 294.354 240.559 294.354C237.711 294.354 235.226 294.93 233.105 296.082C230.983 297.233 229.347 298.885 228.195 301.036C227.044 303.188 226.468 305.748 226.468 308.718H207.786C207.786 302.627 209.165 297.339 211.923 292.854C214.68 288.37 218.544 284.9 223.514 282.445C228.483 279.991 234.211 278.763 240.695 278.763C247.362 278.763 253.165 279.945 258.105 282.309C263.074 284.642 266.938 287.885 269.695 292.036C272.453 296.188 273.832 300.945 273.832 306.309C273.832 309.824 273.135 313.294 271.741 316.718C270.377 320.142 267.938 323.945 264.423 328.127C260.908 332.279 255.953 337.263 249.559 343.082L235.968 356.4V357.036H275.059V373.127H208.695ZM276.52 373.127V358.945L309.657 328.263C312.475 325.536 314.839 323.082 316.748 320.9C318.687 318.718 320.157 316.582 321.157 314.491C322.157 312.37 322.657 310.082 322.657 307.627C322.657 304.9 322.036 302.551 320.793 300.582C319.551 298.582 317.854 297.051 315.702 295.991C313.551 294.9 311.111 294.354 308.384 294.354C305.536 294.354 303.051 294.93 300.93 296.082C298.808 297.233 297.172 298.885 296.02 301.036C294.869 303.188 294.293 305.748 294.293 308.718H275.611C275.611 302.627 276.99 297.339 279.748 292.854C282.505 288.37 286.369 284.9 291.339 282.445C296.308 279.991 302.036 278.763 308.52 278.763C315.187 278.763 320.99 279.945 325.93 282.309C330.899 284.642 334.763 287.885 337.52 292.036C340.278 296.188 341.657 300.945 341.657 306.309C341.657 309.824 340.96 313.294 339.566 316.718C338.202 320.142 335.763 323.945 332.248 328.127C328.733 332.279 323.778 337.263 317.384 343.082L303.793 356.4V357.036H342.884V373.127H276.52Z" fill="#F33535"/>
<path fill-rule="evenodd" clip-rule="evenodd" d="M372 167.849L340.342 152.978L276.398 161.754C276.328 161.021 276.246 160.291 276.154 159.565L336.68 151.258L328.595 147.46L275.36 154.656C273.449 144.981 269.613 135.998 264.266 128.123L307.076 95.5088L310.107 87.106L261.334 124.107C260.881 123.529 260.419 122.958 259.949 122.394L311.48 83.3006L323.745 49.3066L290.196 61.4103L250.855 113.268C250.293 112.796 249.723 112.332 249.147 111.876L286.39 62.7832L277.542 65.9755L244.928 108.785C237.053 103.438 228.07 99.6017 218.395 97.6914L225.591 44.4566L221.793 36.3715L213.486 96.8968C212.76 96.8047 212.03 96.7233 211.297 96.6529L220.073 32.7099L204.708 7.9462e-06L189.544 32.2805L198.366 96.5556C197.631 96.615 196.9 96.6852 196.172 96.7663L187.824 35.9421L183.825 44.4566L190.999 97.5323C181.238 99.3408 172.164 103.106 164.199 108.406L131.873 65.9741L123.47 62.9425L160.156 111.3C159.573 111.748 158.998 112.204 158.43 112.669L119.664 61.5695L85.6706 49.3052L97.7744 82.8539L149.113 121.802C148.637 122.361 148.169 122.927 147.71 123.5L99.1473 86.6593L102.339 95.5074L144.589 127.695C139.111 135.642 135.178 144.736 133.226 154.544L80.8202 147.46L72.7351 151.258L132.423 159.45C132.33 160.176 132.248 160.906 132.176 161.639L69.0735 152.978L37.4153 167.849L372 167.849Z" fill="#F1DE30"/>
</svg>
