<svg width="709" height="815" viewBox="0 0 709 815" fill="none" xmlns="http://www.w3.org/2000/svg">
<path d="M708 338L417 506L126 338L417 168L708 338Z" fill="#DBDE30"/>
<path d="M475.198 293.599L369.806 359.82C365.712 323.414 331.777 253.595 228.79 265.557C125.804 277.519 40.0347 182.052 10.0236 132.823L129.004 56.1519C122.492 68.5764 244.606 163.162 340.192 161.341C416.66 159.885 462.058 248.907 475.198 293.599Z" fill="white"/>
<path d="M126 451V346.5L417.5 514.5L708.5 346V450.5L417.5 617.5L126 451Z" fill="white"/>
<rect width="337.173" height="189.624" transform="matrix(0.866025 -0.5 0 1 417 624.586)" fill="#CF0A0A"/>
<rect width="336.018" height="189.79" transform="matrix(-0.866025 -0.5 0 1 417 624.586)" fill="#171571"/>
</svg>
