<svg width="735" height="730" viewBox="0 0 735 730" fill="none" xmlns="http://www.w3.org/2000/svg">
<path fill-rule="evenodd" clip-rule="evenodd" d="M9.98737 170.333L25.3105 137.712L56.8534 367.541C59.6421 367.226 62.4432 366.952 65.2563 366.72L31.9006 123.683L90.0001 -3.8147e-06L148.871 125.325L115.688 367.1C118.496 367.374 121.292 367.69 124.074 368.047L155.461 139.355L170.013 170.333L142.87 371.121C180.449 378.602 215.293 393.67 245.739 414.659L369.063 252.782L402.964 240.551L261.81 426.614C264.007 428.374 266.177 430.167 268.319 431.992L417.544 235.291L546.084 188.916L499.094 319.162L303.311 467.69C305.092 469.866 306.841 472.07 308.556 474.3L493.834 333.742L482.219 365.937L319.646 489.791C339.952 520.31 354.378 555.078 361.308 592.477L564.667 564.987L597.287 580.31L364.242 612.294C364.553 615.084 364.822 617.886 365.05 620.699L611.316 586.9L735 645L609.675 703.871L364.677 670.246C364.408 673.054 364.096 675.85 363.743 678.633L595.646 710.461L564.667 725.013L360.699 697.441C353.379 734.512 338.68 768.931 318.194 799.104L482.218 924.063L494.448 957.963L306.35 815.265C304.605 817.474 302.828 819.656 301.018 821.81L499.708 972.544L546.083 1101.08L415.837 1054.09L266.052 856.653C263.892 858.455 261.704 860.224 259.489 861.96L401.257 1048.83L369.062 1037.22L244.103 873.194C213.93 893.68 179.511 908.379 142.441 915.699L170.013 1119.67L155.461 1150.65L123.633 918.743C120.85 919.096 118.054 919.408 115.246 919.677L148.871 1164.67L90 1290L31.9006 1166.32L65.6995 920.05C62.8859 919.822 60.0841 919.553 57.2947 919.242L25.3104 1152.29L9.98737 1119.67L37.4772 916.308C0.0778198 909.379 -34.6902 894.952 -65.2095 874.646L-189.063 1037.22L-221.257 1048.83L-80.6994 863.556C-82.93 861.841 -85.1339 860.092 -87.3102 858.312L-235.837 1054.09L-366.084 1101.08L-319.709 972.544L-123.008 823.319C-124.833 821.177 -126.626 819.007 -128.386 816.81L-314.449 957.964L-302.218 924.063L-140.341 800.739C-161.331 770.293 -176.398 735.449 -183.879 697.87L-384.667 725.013L-415.645 710.461L-186.953 679.074C-187.31 676.291 -187.626 673.496 -187.9 670.688L-429.675 703.871L-555 645L-431.316 586.9L-188.279 620.256C-188.048 617.443 -187.774 614.642 -187.459 611.853L-417.287 580.31L-384.667 564.987L-184.493 592.047C-177.408 554.137 -162.616 518.94 -141.808 488.144L-302.219 365.937L-313.834 333.742L-130.613 472.74C-128.882 470.521 -127.117 468.329 -125.321 466.165L-319.094 319.162L-366.084 188.916L-237.544 235.291L-89.5942 430.312C-87.4362 428.508 -85.2504 426.735 -83.0376 424.996L-222.964 240.551L-189.064 252.782L-66.8564 413.193C-36.0599 392.384 -0.863159 377.593 37.0465 370.507L9.98737 170.333Z" fill="#DBDE30" fill-opacity="0.25"/>
</svg>
